<?xml version="1.0" standalone="no"?>
<!DOCTYPE svg PUBLIC "-//W3C//DTD SVG 20010904//EN"
 "http://www.w3.org/TR/2001/REC-SVG-20010904/DTD/svg10.dtd">
<svg version="1.0" xmlns="http://www.w3.org/2000/svg"
 width="100.000000pt" height="100.000000pt" viewBox="0 0 100.000000 100.000000"
 preserveAspectRatio="xMidYMid meet">
<metadata>
Created by potrace 1.15, written by Peter Selinger 2001-2017
</metadata>
<g transform="translate(0.000000,100.000000) scale(0.100000,-0.100000)"
fill="#000000" stroke="none">
<path d="M345 895 l-25 -24 0 -228 0 -228 -44 50 c-39 45 -48 50 -86 50 -34 0
-47 -6 -66 -28 -38 -45 -31 -76 35 -164 251 -329 243 -323 421 -323 129 0 179
16 218 65 39 49 44 89 40 318 -3 219 -3 219 -28 239 -17 14 -35 18 -59 16 -25
-3 -39 1 -57 19 -24 24 -67 30 -93 14 -9 -6 -21 -3 -35 11 -14 13 -31 18 -53
16 l-33 -4 0 88 c0 81 -2 91 -25 113 -15 16 -36 25 -55 25 -19 0 -40 -9 -55
-25z m84 -28 c6 -8 12 -77 13 -178 3 -138 5 -164 18 -164 11 0 16 15 20 59 4
41 10 62 22 70 30 19 52 -5 58 -60 6 -62 32 -69 40 -10 10 82 71 74 80 -10 6
-56 31 -69 40 -20 6 37 33 55 57 40 16 -10 18 -34 21 -225 3 -241 -2 -263 -68
-307 -33 -22 -43 -23 -162 -20 -119 3 -128 4 -153 28 -40 37 -267 331 -273
352 -5 22 24 58 47 58 9 0 46 -32 82 -71 40 -45 70 -70 77 -65 9 5 12 77 12
260 0 183 3 255 12 264 16 16 43 15 57 -1z"/>
</g>
</svg>
